<?xml version="1.0" encoding="UTF-8"?><svg id="Layer_1" xmlns="http://www.w3.org/2000/svg" viewBox="0 0 511.95 80.83"><defs><style>.cls-1{fill:#ad2824;}</style></defs><polygon class="cls-1" points="0 70.13 0 8.37 31.4 1.05 59.66 10.47 59.66 33.49 39.77 39.77 53.38 48.15 62.8 64.89 33.49 76.41 0 70.13"/><polygon class="cls-1" points="64.89 59.68 81.97 8.89 95.1 0 112.18 7.62 131.88 60.95 118.75 77.45 96.42 48.25 80.66 77.45 64.89 59.68"/><polygon class="cls-1" points="137.11 65.42 137.11 19.36 149.68 .52 161.19 12.04 182.12 44.48 181.08 13.08 191.54 1.57 200.96 14.13 206.2 69.6 191.54 76.93 158.05 46.58 158.05 75.88 145.49 76.93 137.11 65.42"/><polygon class="cls-1" points="374.31 18.03 385.82 4.42 421.41 7.56 403.62 48.38 420.36 49.43 439.21 59.89 426.64 74.55 382.68 74.55 366.98 54.66 397.34 28.49 374.31 18.03"/><polygon class="cls-1" points="213 59.68 230.07 8.89 243.21 0 260.28 7.62 279.99 60.95 266.85 77.45 244.52 48.25 228.76 77.45 213 59.68"/><polygon class="cls-1" points="290.05 65.65 290.05 19.6 302.61 .76 314.13 12.27 335.06 44.72 334.01 13.32 344.48 1.8 353.9 14.36 359.13 69.84 344.48 77.16 310.99 46.81 310.99 76.12 298.43 77.16 290.05 65.65"/><polygon class="cls-1" points="444.96 63.05 462.04 12.26 475.17 3.37 492.25 10.99 511.95 64.32 498.81 80.83 476.49 51.62 460.72 80.83 444.96 63.05"/><polygon class="cls-1" points="400.61 51.47 429.09 24.37 421.41 7.56 397.6 46.82 400.61 51.47"/></svg>